<?xml version="1.0" encoding="utf-8"?>
<!-- Generator: Adobe Illustrator 16.0.0, SVG Export Plug-In . SVG Version: 6.00 Build 0)  -->
<!DOCTYPE svg PUBLIC "-//W3C//DTD SVG 1.1//EN" "http://www.w3.org/Graphics/SVG/1.1/DTD/svg11.dtd">
<svg version="1.1" id="Layer_1" xmlns="http://www.w3.org/2000/svg" xmlns:xlink="http://www.w3.org/1999/xlink" x="0px" y="0px"
	 width="24px" height="24px" viewBox="0 0 24 24" enable-background="new 0 0 24 24" xml:space="preserve">
<g>
	<g>
		<g>
			<path d="M12.6,15.6h-1.4c-2,0-4.6-3.2-4.6-5.2V4.5c0-2,1.6-3.7,3.7-3.7h3.3c2,0,3.7,1.6,3.7,3.7v5.9
				C17.2,12.4,14.6,15.6,12.6,15.6z M10.2,1.8C8.7,1.8,7.5,3,7.5,4.5v5.9c0,1.5,2.1,4.3,3.7,4.3h1.4c1.5,0,3.7-2.8,3.7-4.3V4.5
				c0-1.5-1.2-2.7-2.7-2.7H10.2z"/>
		</g>
		<g>
			<g>
				<path d="M7.2,19.2c-0.3,0-0.5-0.2-0.5-0.5s0.2-0.5,0.5-0.5c0.8,0,1.5-0.7,1.5-1.5v-2.5c0-0.3,0.2-0.5,0.5-0.5
					c0.3,0,0.5,0.2,0.5,0.5v2.5C9.6,18.1,8.5,19.2,7.2,19.2z"/>
			</g>
			<g>
				<path d="M16.6,19.2c-1.4,0-2.5-1.1-2.5-2.5v-2.5c0-0.3,0.2-0.5,0.5-0.5s0.5,0.2,0.5,0.5v2.5c0,0.8,0.7,1.5,1.5,1.5
					c0.3,0,0.5,0.2,0.5,0.5S16.9,19.2,16.6,19.2z"/>
			</g>
		</g>
		<g>
			<path d="M22.5,23.6H1.3c-0.3,0-0.5-0.2-0.5-0.5v-4.5c0-0.3,0.2-0.5,0.5-0.5h5.7c0.3,0,0.5,0.2,0.5,0.5s-0.2,0.5-0.5,0.5H1.8v3.5
				H22v-3.5h-5.3c-0.3,0-0.5-0.2-0.5-0.5s0.2-0.5,0.5-0.5h5.8c0.3,0,0.5,0.2,0.5,0.5v4.5C23,23.4,22.8,23.6,22.5,23.6z"/>
		</g>
		<g>
			<path d="M13.8,7.5c-0.8,0-1.7,0-2.5-0.1C8.4,7.1,6.9,6.5,6.6,5.6C6.5,5.4,6.7,5.1,6.9,5c0.3-0.1,0.5,0.1,0.6,0.3
				c0.1,0.3,1.2,0.8,3.8,1.1c2.2,0.2,4.2,0.1,4.8-0.1c0.2-0.1,0.5,0.1,0.6,0.3c0.1,0.3-0.1,0.5-0.3,0.6C15.9,7.4,14.9,7.5,13.8,7.5z
				"/>
		</g>
		<g>
			<g>
				<path d="M10.2,9.4H9.6c-0.3,0-0.5-0.2-0.5-0.5c0-0.3,0.2-0.5,0.5-0.5h0.6c0.3,0,0.5,0.2,0.5,0.5C10.7,9.2,10.5,9.4,10.2,9.4z"/>
			</g>
			<g>
				<path d="M14.2,9.4h-0.6c-0.3,0-0.5-0.2-0.5-0.5c0-0.3,0.2-0.5,0.5-0.5h0.6c0.3,0,0.5,0.2,0.5,0.5C14.6,9.2,14.4,9.4,14.2,9.4z"
					/>
			</g>
		</g>
	</g>
	<g>
		<g>
			<path d="M14.6,17.2H9.2c-0.3,0-0.5-0.2-0.5-0.5c0-0.3,0.2-0.5,0.5-0.5h5.5c0.3,0,0.5,0.2,0.5,0.5C15.1,16.9,14.9,17.2,14.6,17.2z
				"/>
		</g>
		<g>
			<path d="M17.6,19.2h-12c-0.3,0-0.5-0.2-0.5-0.5s0.2-0.5,0.5-0.5h12c0.3,0,0.5,0.2,0.5,0.5S17.8,19.2,17.6,19.2z"/>
		</g>
		<g>
			<path d="M22.5,21.4H1.3c-0.3,0-0.5-0.2-0.5-0.5c0-0.3,0.2-0.5,0.5-0.5h21.2c0.3,0,0.5,0.2,0.5,0.5C23,21.2,22.8,21.4,22.5,21.4z"
				/>
		</g>
	</g>
</g>
</svg>
